/* XPM */
static char *abcmint16x[] = {
/* columns rows colors chars-per-pixel */
"16 16 129 2 ",
"   c #DA8816",
".  c #DD8E17",
"X  c #DE9218",
"o  c #DF951B",
"O  c #DF971A",
"+  c #E09313",
"@  c #E19714",
"#  c #E29814",
"$  c #E49F17",
"%  c #E19918",
"&  c #E29F1A",
"*  c #E5A217",
"=  c #E7A416",
"-  c #E7A616",
";  c #EAAB15",
":  c #E3A01B",
">  c #E5A218",
",  c #E4A21A",
"<  c #E7A518",
"1  c #E4A61D",
"2  c #E6A91D",
"3  c #E7AA1C",
"4  c #E7AC1E",
"5  c #EAAD18",
"6  c #EBAF19",
"7  c #E9AF1D",
"8  c #E9B21D",
"9  c #ECB71D",
"0  c #EFB91D",
"q  c #F1BA1D",
"w  c #DFB034",
"e  c #E8AF20",
"r  c #EAB420",
"t  c #EBB621",
"y  c #EBB820",
"u  c #ECBB23",
"i  c #EBBB27",
"p  c #ECBB24",
"a  c #EDBE26",
"s  c #F0BD21",
"d  c #E3B43E",
"f  c #E6B938",
"g  c #E3BA3E",
"h  c #EFC124",
"j  c #EFC429",
"k  c #F3C122",
"l  c #F3C223",
"z  c #F5C523",
"x  c #F4C526",
"c  c #F5C627",
"v  c #F1C529",
"b  c #F4C528",
"n  c #F0C72D",
"m  c #F3C82A",
"M  c #F5C82A",
"N  c #F2CB2F",
"B  c #F7CB2E",
"V  c #E4C13E",
"C  c #F4CD31",
"Z  c #F7CD30",
"A  c #F4CE35",
"S  c #F8CE32",
"D  c #F4CD3D",
"F  c #F6D237",
"G  c #F8D031",
"H  c #F9D237",
"J  c #F5D239",
"K  c #F7D338",
"L  c #F7D63D",
"P  c #F6D53E",
"I  c #FAD339",
"U  c #FAD43A",
"Y  c #FDD539",
"T  c #F9D73F",
"R  c #FBD63E",
"E  c #FCD53C",
"W  c #FDD83E",
"Q  c #D8BD4B",
"!  c #D6BB51",
"~  c #CFBD66",
"^  c #DDC050",
"/  c #DDC055",
"(  c #D5C05F",
")  c #EECE44",
"_  c #F6D341",
"`  c #F8D742",
"'  c #FCD841",
"]  c #FCDA42",
"[  c #FAD944",
"{  c #F9DB47",
"}  c #FDDA47",
"|  c #FEDB46",
" . c #F4D64A",
".. c #F9DB49",
"X. c #FADC4A",
"o. c #FDDC49",
"O. c #FADD4D",
"+. c #FBDE4C",
"@. c #FDDD4D",
"#. c #E0C756",
"$. c #E1C856",
"%. c #E3C95B",
"&. c #E4CA5D",
"*. c #EED152",
"=. c #E9D25B",
"-. c #EFD55B",
";. c #EFD55E",
":. c #F2D856",
">. c #FBDF50",
",. c #FBDF51",
"<. c #FDDF50",
"1. c #FEE14F",
"2. c #FDE053",
"3. c #FDE054",
"4. c #FCE154",
"5. c #FEE358",
"6. c #FDE35B",
"7. c #FFE55A",
"8. c #FEE45C",
"9. c #DBC562",
"0. c #DBC763",
"q. c #DCC661",
"w. c #DFC760",
"e. c #D8C366",
"r. c #D9C666",
"t. c #D3C16A",
"y. c #DDC969",
"u. c #D9C976",
"i. c #FDE561",
/* pixels */
"R R I H H Z M c c s 6 = @ @ @ # ",
"} } ' U U S S c c k 9 - @ @ > - ",
"@.@.} ' E U H B c k u 5 + @ * < ",
"<.<.o.' E H H S c k q 5 # @ $ > ",
"<.@.o.} W E E H M z q ; * * * - ",
"3.3.1.*.;._ %.&.D V ! d * * < > ",
"5.3.2.0.u.*.e.q.&.! i d < > & % ",
"8.5.:.~ t.y.q.#.t.$.s f 7 < > % ",
"i.7.=.-. .r.( $._ Q ! g 8 4 : O ",
"i.6.4.>.o.] U F Z M i 0 8 4 * O ",
"i.5.4.>.1.` T K Z m h y t 8 2 O ",
"6.5.>.1.X.] P F Z j i t t 8 1 X ",
"6.4.>.>.X._ L F C j y 8 7 2 & . ",
"O.O.>.O.{ ` L F C x a 2 e 2 % . ",
"X.X....._ P J J C j a t e 2 O   ",
"X.X.X._ P J A Z j i i t r < %   "
};
