/* XPM */
static char *abcmint64x[] = {
/* columns rows colors chars-per-pixel */
"64 64 196 2 ",
"   c #5F552B",
".  c #6A5D28",
"X  c #695F30",
"o  c #6F632E",
"O  c #716124",
"+  c #6E6332",
"@  c #756B3C",
"#  c #7D723D",
"$  c #7D7343",
"%  c #82773D",
"&  c #D57F13",
"*  c #817641",
"=  c #867941",
"-  c #897D41",
";  c #847B4A",
":  c #887E48",
">  c #8F803F",
",  c #A38E3E",
"<  c #AC963D",
"1  c #D68314",
"2  c #DA8615",
"3  c #D88817",
"4  c #DC8C15",
"5  c #DC8D18",
"6  c #DE9314",
"7  c #DF9815",
"8  c #DE931A",
"9  c #DF9A1A",
"0  c #E08F15",
"q  c #E19514",
"w  c #E39C15",
"e  c #E19519",
"r  c #E29C1A",
"t  c #E5A316",
"y  c #E9A616",
"u  c #E7A916",
"i  c #E9AB16",
"p  c #E5A41A",
"a  c #E8A519",
"s  c #E6AB1C",
"d  c #E9AC1B",
"f  c #EBB116",
"g  c #E7B11E",
"h  c #EBB31C",
"j  c #EEBA1D",
"k  c #F0B71E",
"l  c #F1BD1E",
"z  c #E5A721",
"x  c #E6AC20",
"c  c #E9AE21",
"v  c #E7B121",
"b  c #EAB421",
"n  c #ECBB23",
"m  c #EEBF28",
"M  c #F1BE22",
"N  c #F2BB2C",
"B  c #ECBB34",
"V  c #E8B83B",
"C  c #EFC01C",
"Z  c #F1C01F",
"A  c #EEC225",
"S  c #EEC42A",
"D  c #EFC92E",
"F  c #F3C324",
"G  c #F6CA26",
"H  c #F3C62A",
"J  c #F4CA2D",
"K  c #F8CC2D",
"L  c #F9D02F",
"P  c #F5CE32",
"I  c #F8CE32",
"U  c #F3C63A",
"Y  c #F5CE3C",
"T  c #FFCD3A",
"R  c #F6D135",
"E  c #F9D235",
"W  c #F6D43B",
"Q  c #FAD43C",
"!  c #F7D83E",
"~  c #FCD93D",
"^  c #8D8145",
"/  c #8E8349",
"(  c #988743",
")  c #978947",
"_  c #928649",
"`  c #94894F",
"'  c #9B8D4B",
"]  c #8A8251",
"[  c #948857",
"{  c #9A8E5B",
"}  c #9D9253",
"|  c #A0924E",
" . c #AC9D4D",
".. c #A39857",
"X. c #AB9B50",
"o. c #A69A59",
"O. c #AB9D59",
"+. c #BCA749",
"@. c #B5A452",
"#. c #B1A35A",
"$. c #BBA95A",
"%. c #978E63",
"&. c #9C9268",
"*. c #A5996B",
"=. c #B7A96B",
"-. c #BCB067",
";. c #BDB17A",
":. c #C2AA4D",
">. c #DDBC46",
",. c #D5BA4E",
"<. c #C2AE54",
"1. c #C7B353",
"2. c #CCBA5E",
"3. c #D3BA53",
"4. c #C5B464",
"5. c #CEBC63",
"6. c #CAB969",
"7. c #C7B979",
"8. c #D0BE75",
"9. c #D9C04F",
"0. c #E5C447",
"q. c #F2C841",
"w. c #F7D641",
"e. c #FAD641",
"r. c #F7D944",
"t. c #FBD944",
"y. c #F9D64B",
"u. c #F7D948",
"i. c #FBDD4C",
"p. c #E7C856",
"a. c #EACC54",
"s. c #F2CA59",
"d. c #EDD45D",
"f. c #FCDE52",
"g. c #F5D95B",
"h. c #FADD5C",
"j. c #FDE14D",
"k. c #FDE154",
"l. c #FDE35B",
"z. c #FFEA5D",
"x. c #DBC465",
"c. c #DECA64",
"v. c #D4C369",
"b. c #CEC07F",
"n. c #D7C57D",
"m. c #DFD073",
"M. c #E2CD63",
"N. c #EBCB67",
"B. c #ECD563",
"V. c #EAD666",
"C. c #EAD56C",
"Z. c #F4DB65",
"A. c #F5D269",
"S. c #F1DB6C",
"D. c #E9D77A",
"F. c #F1DE7E",
"G. c #FDE462",
"H. c #FFEA64",
"J. c #FCE46C",
"K. c #FFEB6D",
"L. c #F6E176",
"P. c #FCE674",
"I. c #FFEC75",
"U. c #FDE37B",
"Y. c #FFE97D",
"T. c #CBBE82",
"R. c #DDD299",
"E. c #EDDC87",
"W. c #F1DF85",
"Q. c #E8DA94",
"!. c #F4E285",
"~. c #FFEC83",
"^. c #FBE98A",
"/. c #FFF081",
"(. c #FFF28B",
"). c #F8E595",
"_. c #FBED93",
"`. c #F3E499",
"'. c #FAEC9B",
"]. c #FFF094",
"[. c #FFF59D",
"{. c #D8CFA5",
"}. c #DED4A5",
"|. c #EDE1AD",
" X c #FDECA4",
".X c #F9EDAE",
"XX c #FFF3A2",
"oX c #FFF3A9",
"OX c #FFF9AA",
"+X c #F8EFBD",
"@X c #FDF3B5",
"#X c #FFFAB6",
"$X c #FFF6BC",
"%X c #FFFABC",
"&X c #FCF6C3",
"*X c #FFFDCD",
/* pixels */
"Q Q Q E E e.t.Q E I T E E E E E E E I I I I J F F F K H H H G F F M M M M k k f i d y d y t t w w q q q q 6 1 6 w q q 1 q q q w ",
"e.Q ~ Q Q Q Q t.e.E E Q E I I E I E E E I P I K K F K F F G H H G F F M F M l k h d i i i y w w w 6 6 6 7 q q 6 t w q 6 q w w q ",
"t.Q Q e.Q e.t.Q Q Q Q E E E E e.E E I E P I I J K J K F F Z F F G F M F H F M l k f f f d y t t w w 6 6 q w q q t w q q w q w w ",
"~ t.t.e.Q Q Q e.t.e.Q e.Q E E E E P E T E E P Y K I I K K H H F M G H M F F M M k k f f i i y t q y 6 0 q w q q w u w w u t y w ",
"t.t.t.t.t.t.t.Q Q t.Q t.e.E Q E Q E E E I E I I I J K J K H K G F G F M l F F M l k f f y y y t t q q q q q w q w t p w w t u w ",
"i.t.t.e.e.t.t.t.E ~ E Q Q Q e.e.E Q E E R P K P I I F K J I F H H H G F F l F M h l f i y y q y y w q q q w w q w t t p u t u t ",
"i.i.i.t.e.t.i.i.i.t.t.Q E Q Q Q Q e.Q E E K Y E I I K K F K F F F G F M F M M M l l l f f y w t t q q 4 q q w q 6 t t w t p u p ",
"i.i.i.t.t.t.t.t.t.i.t.~ E Q e.E E Q e.E R E E E P I P I K K J F H K H F F G Z Z F l l f i u y t q w q q q q q w t w y y q u i d ",
"i.f.i.i.i.t.i.i.i.i.i.Q Q t.e.Q E ~ Q Q E E E E I E P I K I J F F H F M F F Z l F F M l k y y w q 4 0 4 q q q t y t t t t p p a ",
"k.i.i.f.i.i.i.i.i.i.i.i.t.t.e.e.~ e.Q e.E T R T I E E I K K K J H H G M F M M M l l M k j f u w q q q 6 q 6 q w t u i w w u d u ",
"j.i.i.i.f.i.i.i.i.t.t.t.t.t.i.t.t.Q Q E E Q I Q E E E E K K K H K N G N M l M l l k k k f j f w q q 6 q q 6 6 w q q i y a a t p ",
"f.j.i.f.f.i.f.i.t.t.Q t.Q Q t.t.t.t.t.Q Q E E e.Q Y P E E I I H F H K G G M M k l l k k j j f y q q 6 q w q q q w t w i w i p a ",
"f.k.k.f.f.f.f.i.i.t.t.t.t.t.t.i.t.t.t.Q e.Q E E Y E I K I K E K K F H H G H F M l Z j h k i u y w q q q w w w q w w t p t w t w ",
"i.j.k.k.f.f.f.f.i.i.i.t.t.e.Q e.Q t.Q Q Q e.e.Q Q e.E P K I P I H H F H F M F M l l k f h i u y w q 0 q w q q w t w p y t w p 7 ",
"f.i.i.i.i.i.f.i.i.i.i.t.t.t.e.Q e.Q t.E T E e.Q Q Q E E E I E I K H H G G G M M l l j j h f i y y q q q w t q w w t w y p r a w ",
"k.f.f.i.i.i.i.i.i.i.t.i.t.i.t.t.t.E E E E E E E E E E I E P I P K F H F M M M l l l f k j i f u q w q q w w w w w r w w t y a p ",
"i.i.j.f.f.i.i.i.i.i.i.t.t.t.i.e.e.t.Q Q Q Q e.Q E Q Q E I I P E I J J F F F G M l h k h i f d d w q w w y w 7 q w t t w 7 y d u ",
"i.j.i.i.j.f.i.k.k.i.i.t.t.i.i.t.i.t.e.Q e.Q Q E Q Q T E E P P E P I I H F F F H l j l f d f d u y w y w w p t a p t p u u p s u ",
"i.k.f.i.j.i.i.j.i.i.i.i.i.t.t.t.Q e.e.Q Q ~ Q Q E Q E E E E I R I P I K F M F H l l h i d f i i y t w y t p t p d 7 t r a w p p ",
"f.i.f.f.f.i.i.f.i.i.f.i.i.e.t.y.e.Q Q e.Q Q Q Q Q Q e.E E E K P J K K K F F F F Z l l f d i y y u y y w y u u w t a t t a r p u ",
"k.f.k.f.k.k.k.f.i.f.f.i.i.i.~ i.t.Q e.Q e.t.e.Q Q Q Q Q E E P K K K K F M F Z G H N n f y y y t u q t r w d u y a c p u a a p p ",
"k.f.k.f.k.f.k.k.f.f.f.i.i.t.~ g.!.P.t.e.Q ~ ~ y.V.Y.~./.~.~.Y.i.K K I H H H Y Z.Y.~.^.U.q.d d p u t r w w i p p s p u p p p p s ",
"k.f.k.k.k.k.f.f.i.f.i.i.i.t.z.` 8.*Xl.Q e.Q ~ d.$ C.6.O.#.=.b.@XJ.E J F I p.$.2.4.o.o.7.@XA.f d y t s 7 6 u y u a r a r r p 9 r ",
"k.k.k.i.k.k.k.i.f.k.k.f.f.i.C.% +.R.].~ Q e.~ d.+ F.v.<.<.$.- %.*Xy.H H a.= 3.5.3.>.,.( ; &Xs.i t u u a w t t p p a w r 7 t w w ",
"k.k.k.k.l.l.k.k.k.j.k.k.j.z.#.-.Q.: #Xf.Q t.t.d.# .XG.t.t.t.H.% {.~.G t.( @.~.Y l Z l T > {  Xc y a p t r t w r t r t 7 r t t w ",
"k.k.k.k.k.l.k.f.k.i.f.f.j.H.: Q.(.# }.~.Q e.e.B.* .Xf.E E I j._ T.Y.L p.# '.g.M n F M k V ) N.c t t p s t t p t r t 7 w 9 r t 9 ",
"l.k.k.k.k.k.k.k.k.i.i.i.k.x.^ [.l.@.&.#Xi.t.! d.* @XP.f.f.l.C.| W.y.E :.[ OXP M M M M f d N d y p t t p a t s w w t 7 w w e 7 7 ",
"l.l.l.k.l.l.k.k.k.f.k.f.z.} 7.(.~ d.@ +XK.~ t.Z.X Q. XW.!.D.3.oX~.K ~ @.{ XXP M M F j j j d i i a p t p r t p p t 9 t r r 7 8 7 ",
"G.G.l.l.l.l.k.k.k.k.k.j.Z.$ .XY.l.I._ 7.XXr.t.Z.. 3.4._ ) - o =.&Xf.~  .{ XXK F M F n h j f u d h y u r p d p t s p r p p r r 8 ",
"k.l.l.l.l.l.k.k.k.f.i.z.-.O ).`.W.[.4., &Xk.t.d.@ `.P.f.f.f.V.^ ;.#X~ +.[ OXP n F j l j j N v h h i d w w p p p p p r r p r r 7 ",
"G.l.j.z.l.k.k.l.f.f.k.K.; <  .: ^ o.... |.(.~ B.$ .XZ.E K E Q M.* $Xi.9.@ @Xe.l j j k l B 6.).B i d h t t r a d p a r r r w 9 8 ",
"G.l.k.l.l.k.k.k.k.k.z.m.= [.Y.G.G.G.K...*.%Xt.g.# .Xh.E E E ~ p.* oXy.y.# }.~.F l l h F :./ %XB u h s s s t r s p t r r p p q 8 ",
"G.G.l.G.G.G.f.f.l.j.H.o.$.[.i.i.j.t.j.C.@ &XP.d.# @XU.f.f.f.H.#.<._.W E <.$ %XY.Y S U p.^ c.F.h i b c p d p p u p 9 r 7 9 z r 5 ",
"G.H.l.l.l.G.l.l.k.j.L.@ E.Y.i.t.i.t.t.H.$ ;.OXS.  n.`.W.W.W.x.:.F.h.R K t.' $ R.XX~.U.1.1.F.U d d f c h v d a c s r 9 8 8 r p 8 ",
"H.G.G.G.G.l.l.l.j.l.c.$ D.G.u.i.t.t.i.j.2.] _.Z.$ % _ : _ : ' 5.g.P P P G e.+.- ` ` ' X.M.B h j s h p d v d u g s r 9 7 8 5 9 8 ",
"G.G.G.l.l.l.j.l.l.j.h.H.G.k.j.u.t.i.i.t.j.k.i.t.k.h.h.f.f.f.t.~ E E E P K F K Y 0.>.>.U n h h d d h d d d p p s g p r t 9 9 9 8 ",
"l.G.l.G.l.l.k.k.l.l.j.f.i.j.f.i.i.i.t.t.~ ~ Q r.e.E ~ E R E L L J K R R P J H C C F j j h A h g s h g g s s z z s a r 9 r 8 9 8 ",
"G.G.G.G.G.l.l.l.k.k.l.i.f.f.f.i.i.t.t.t.t.t.t.~ t.! r.E e.Q R R R R R R P K D J D A C n h n n j j g g v p p s s s z r 9 r 5 5 r ",
"G.G.G.G.G.l.f.l.k.f.j.f.j.f.j.j.f.i.t.i.t.r.e.~ Q Q Q E E E P P E R R H J J H F A A j h n n g h h n h v v g g v p c r z 9 9 8 5 ",
"G.G.l.l.l.G.l.l.l.k.f.f.k.k.u.u.f.i.i.i.i.t.t.r.r.t.! Q E W E K J R R J H J F A F H n n g j C h g j s j b v g s c p 9 z 9 9 8 8 ",
"H.G.G.l.l.l.G.G.l.l.k.u.k.k.k.k.i.i.i.i.i.t.t.~ ! t.r.Q E E W R R P P J P K J A A J A A h j A g h g g h b h c h c u p r 9 9 5 5 ",
"H.G.l.G.l.l.l.l.k.k.f.k.j.g.k.k.k.t.i.i.r.! t.Q Q r.t.! E J E R R P J J J J J H A H A A n j n v h n h v n b g h v d z p r 9 8 5 ",
"G.G.G.G.k.k.l.l.l.f.i.l.k.k.u.u.i.j.i.i.t.t.t.t.! t.! ! ! ! R R W R P H H D J C A A n n n n v v b n n n g h d g h s t t z 9 8 5 ",
"l.G.l.G.k.l.k.k.l.f.f.f.u.k.j.j.t.j.i.i.i.t.r.r.r.! Q Q Q W W W P P P P G J D C n A A A j n g x j g b h b h h g b v z r 9 9 8 3 ",
"k.k.l.g.k.k.l.k.k.i.j.j.k.k.i.k.f.i.i.i.t.t.Q Q ! r.! E R R W W P D P D F H A D A j A C n j v x b b h h v s h v x v z t 9 8 9 8 ",
"z.l.l.l.l.k.l.l.f.f.f.i.f.f.i.k.f.t.u.i.t.! t.Q Q Q ~ R E P P R R J P R G A A H j h j j j b A v b b v n b g h v z p 9 r 9 8 8 5 ",
"l.l.G.l.l.l.g.k.k.f.u.i.j.f.f.i.i.i.i.u.t.t.r.r.r.r.E Q R R P W P J R R D A D A n n n A v n A n b v g j g v s x d r r r 8 5 5 5 ",
"z.l.k.k.l.k.k.k.j.k.k.f.k.i.i.k.i.i.i.t.t.r.Q E ! r.r.! W P J P R D J D H G D H n b g b b v g j h d v b s v g v s p z r q 5 2 2 ",
"g.k.j.k.g.z.u.j.j.u.g.u.j.f.u.j.j.r.r.t.r.r.W W W ! W W W P R D D J H J S A A A A f h g c v b h j c c n h v c g p p x r 5 7 5 3 ",
"z.k.f.l.k.z.z.g.z.f.k.k.f.u.f.j.k.u.u.j.t.W r.! e.! W e.W R E P R J H D J D A A A j n b g a b b d a r v v s s s p s a r 8 e 5 5 ",
"k.k.l.f.k.k.k.k.u.f.u.k.k.j.u.j.j.i.i.j.r.W W ! W R W r.W P P R W P H D S H H H A j g h d s v b h s s g s g s r t 9 z 9 8 5 5 2 ",
"k.l.g.k.z.Z.k.u.f.k.k.k.j.u.j.u.u.j.u.i.j.t.! W W ! Q Q ! W W W P R D D A H A n n j j j g d c x h n u d g s z p 9 8 r 7 8 5 2 2 ",
"j.f.k.u.k.k.k.k.u.j.u.z.f.f.u.u.t.i.i.u.j.r.t.e.! W r.e.E P P E P P D D S S A A n n n n v h h c s g h v s s x p z 7 7 q 8 4 5 1 ",
"f.f.k.u.k.k.k.k.k.k.u.j.k.u.r.r.i.i.u.! r.y.y.r.! W ! ! W R W P P P R D H D S A n F n j n v h b d s v n b u p s r r r 5 9 4 5 2 ",
"f.k.f.f.u.u.u.u.j.j.r.j.k.j.r.j.i.y.t.r.W W w.r.w.E W W E P W ! R R P D D H F n n A n v n x g h g s v b c s p 9 r e e 8 e 0 5 5 ",
"f.u.u.k.k.k.j.j.f.f.r.r.u.r.r.r.r.r.t.t.! W ! w.! W W R Y P D P R D J J K S A b n S n v b p s d s d v c z s z r r e 2 8 e 5 4 4 ",
"i.k.f.j.i.j.i.i.u.f.j.u.j.u.u.r.! W r.t.w.E ! W W w.r.W W P P P D R D S H A A n n m n v b b v v g c s s p z z p a 9 5 2 q 2 2 e ",
"i.u.u.j.i.i.f.i.u.r.j.u.f.r.r.u.r.! r.w.w.W W W P w.W D P P D D R P P P D A D A m m n b n n n v v b v s z r s p z r 5 3 3 & 2 8 ",
"i.i.u.i.i.u.t.y.u.j.r.j.r.j.j.r.j.r.w.W w.w.Y P ! W W W P D P P P R D P P S A n S m n n n b m v g c v c s z p u c w 8 5 2 & 5 8 ",
"u.i.j.u.j.u.i.r.u.r.r.j.j.u.u.! u.r.! W W ! R P W P W Y W W P H P D P S D S A A n S b m b n n v n z b g s r z s a r 7 e 2 1 & 5 ",
"j.j.u.j.j.u.f.k.i.u.i.u.! r.r.j.r.r.w.w.W w.W w.Y W P W P Y R D D P S S D D m A A n n A b n n b v z v n p r p c p r q q 8 2 1 5 ",
"u.u.u.j.j.j.r.u.u.i.t.t.r.W ! ! ! w.D w.W W P W W P D D U P R D J P S m A A S m N m n n n b b n h p s b p p p t p w w q 4 2 & & ",
"u.r.u.j.t.r.r.r.u.t.t.u.r.r.r.r.w.W W W W W W P P W W P D P Y D P D S S S S b n n b b M b b v b h p b h c r r a r e e 8 r 5 2 5 ",
"i.r.r.u.t.r.r.u.i.r.r.w.r.! ! r.w.W W W D W W W P P P D D D D A P m D A A A n n n m b M b n n v c a b d s p r r 8 r 5 4 r 5 2 2 "
};
