/* XPM */
static char *abcmint32x[] = {
/* columns rows colors chars-per-pixel */
"32 32 118 2 ",
"   c #D98615",
".  c #DC8C16",
"X  c #DC8B18",
"o  c #DF9315",
"O  c #DE9319",
"+  c #DF991C",
"@  c #E19514",
"#  c #E39C16",
"$  c #E29C1A",
"%  c #E5A316",
"&  c #E8A717",
"*  c #E9AB16",
"=  c #E5A41A",
"-  c #E8A71B",
";  c #E6AB1D",
":  c #E9AC1B",
">  c #ECB115",
",  c #E7B01E",
"<  c #EBB31D",
"1  c #EEB91D",
"2  c #F0BB15",
"3  c #F1BC1E",
"4  c #D1B53C",
"5  c #E8AF20",
"6  c #EAB421",
"7  c #EDBB23",
"8  c #EDBF28",
"9  c #F1BE21",
"0  c #F0B729",
"q  c #EBBF38",
"w  c #F0BB34",
"e  c #F4C01E",
"r  c #EEC126",
"t  c #EEC32A",
"y  c #F3C325",
"u  c #F9CB27",
"i  c #F3C629",
"p  c #F5CA2D",
"a  c #F8CC2E",
"s  c #EFCA3B",
"d  c #F4CE33",
"f  c #F9CF33",
"g  c #F1CA3C",
"h  c #F6D136",
"j  c #F9D135",
"k  c #FFDC32",
"l  c #F6D43B",
"z  c #FAD53C",
"x  c #FDD93C",
"c  c #BCA74C",
"v  c #B3A154",
"b  c #B4A45D",
"n  c #AA9E66",
"m  c #BBAB62",
"M  c #BAAC6F",
"N  c #B4AA77",
"B  c #BAAD75",
"V  c #C5B04B",
"C  c #CBB04A",
"Z  c #D5B642",
"A  c #D1B846",
"S  c #C1AC53",
"D  c #C7B251",
"F  c #C9B354",
"G  c #C2B25D",
"H  c #CEBB5E",
"J  c #D1BA5C",
"K  c #E8BD50",
"L  c #CCB961",
"P  c #C5B66D",
"I  c #C1B575",
"U  c #C1B578",
"Y  c #C5B97C",
"T  c #CDBE7B",
"R  c #DBC14E",
"E  c #D9C356",
"W  c #D2C15E",
"Q  c #E1C547",
"!  c #E6CA46",
"~  c #E6C849",
"^  c #FAD741",
"/  c #FBD944",
"(  c #FCDD4C",
")  c #E6CC56",
"_  c #EBCE55",
"`  c #F2CB52",
"'  c #EED351",
"]  c #EDD75E",
"[  c #F4D254",
"{  c #F6DA55",
"}  c #FCDF51",
"|  c #FADC5F",
" . c #FFE24D",
".. c #FDE155",
"X. c #FEE35A",
"o. c #D2C162",
"O. c #D4C36D",
"+. c #DCCB68",
"@. c #DECD7A",
"#. c #EECC67",
"$. c #E5CF68",
"%. c #EDD463",
"&. c #F2D963",
"*. c #FADE61",
"=. c #F7DD6E",
"-. c #E0CD7E",
";. c #EDD873",
":. c #ECDA7A",
">. c #FEE562",
",. c #F4E27E",
"<. c #FEE878",
"1. c #C6BC83",
"2. c #D7C682",
"3. c #D2C588",
"4. c #E0D082",
"5. c #EAD780",
"6. c #EDDC85",
"7. c #E1D28A",
/* pixels */
"z z z ^ j j j j j j f a i i i u 9 9 9 1 * * - # @ @ @ @ # o @ @ ",
"/ ^ ^ x ^ ^ z j j f f f a a i i i y i 9 1 * * & # @ @ @ # # % # ",
"/ / / / ^ z z z z j j f f a a i i y 9 y 3 > & & # @ @ # # % - % ",
"( ( / / / ^ z x z z j j f a a 9 u y y 9 9 3 & # # @ @ # # % % * ",
"} ( ( ( ( ( ^ ^ z ^ f j j j a i i y y 9 9 9 > & @ @ @ # & & = & ",
"} } ( } ( ^ / / / z j z j f f a i u y 9 9 3 3 & @ @ @ @ # & % - ",
"( ..} } ( / ^ / / x z ^ x f f f i a i 9 3 1 : & @ @ % @ $ & $ # ",
"} ( ( ( ( ( / ^ ^ z j j z j j f a 9 9 9 3 1 : > # @ # $ # # = & ",
"(  .} ( } ( / / / x z z j j f j f p y y 3 1 > : # # # $ & % = & ",
"..(  .} ( ( ( ^ x ^ z z x j j a a u y y 3 > * & & % & & & = $ & ",
"} ....} ..( / ( *.^ ^ ^ | *.| } a i a g [ ` 0 & % # % - - & - - ",
"X.} ....}  ...D 3.>.x ~ m L G Y =.u Z H J b 2.w & % # - = $ = $ ",
"} X.X...} } { P I 5.x ~ U ..x S -.g m [ e 7 v K % % % = $ # $ % ",
"X.X.X.} }  .E @.) 1.X.! M ,.] O.>.4 T f 3 3 < - % = = = % $ $ O ",
"X.X.X.X...X.v 4.;.M <.! b +.V b 6.A T j 9 1 7 < : % = = & = = O ",
"X.X.X.} ..] b o.J v 7.' Y X.k Q Y _ B } 2 3 F #.* : = = = + % + ",
">.X.X.X. .m @... .' N :.n :.%.W $.x c T &.E H g * 5 ; * = O $ + ",
">.>.X.X.X.W &.( x  .E ] c D D R ^ f i C c V q , ; * : ; ; + + + ",
">.>.X.X.X. . . ./ /  .l  .k k h f h a u i e 1 6 , , ; ; ; $ + O ",
">.>.X.X.X. .{  .(  . .^ x x l d d d p y r 7 7 < < 6 6 , - = + O ",
">.>.>.>.{ .... . .( / ^ / l l k h p p i y t 7 1 6 , 6 6 ; = + O ",
">.>...X..... .{ ( ( ( ^ / l l l h p p t r r 7 6 7 7 < , 6 = + X ",
"X.X.X.....( .. .(  .^ ^ l / h h d d i i 1 7 1 6 6 < 5 ; 5 5 + O ",
"X.X.X.X. .{  .{ (  ./ l l l h d d d i t 7 1 6 7 6 6 5 5 = $ O X ",
"....X...( ..( ( ( / l l ^ l l d d p i y 7 6 5 6 ; , 6 ; = = O X ",
"....X...{ ..} (  .{ / ^ l ^ l l d i i t 7 1 ; 5 < : 6 = + = X X ",
"....{ { } { ( (  ./  ./ l l l l h d t r 7 7 6 6 ; 6 ; ; $ O O X ",
".. . .(  .( ( ^ / ^ l / ^ l l d d d p 7 r 7 5 5 , 6 ; = $ O O X ",
"( ( ( ( ( ( ( / / / ! l l l d d d p t r 8 7 6 5 5 5 5 ; = X   X ",
"( ( ( ( / ( ' / / ^ l l l l d d d d t r 8 8 7 7 5 5 = = = O   . ",
"'  .{ ( ( ( / / ^ l l l l d s d d t t t 8 7 7 7 5 5 = - = @ X   ",
"/ / / / / / / l l l l l d d d d t t r r 7 7 6 6 ; 5 - $ $ O O   "
};
