<svg id="图层_1" data-name="图层 1" xmlns="http://www.w3.org/2000/svg" viewBox="0 0 1000 1000"><defs><style>.cls-1{fill:#0e6db0;stroke:#0e6db0;}.cls-1,.cls-2{stroke-miterlimit:10;}.cls-2{fill:#fff;stroke:#fff;stroke-width:5px;}</style></defs><title>abcmint</title><path class="cls-1" d="M439.06,92.54,208,203.82a140.46,140.46,0,0,0-76,95.29l-57.07,250A140.45,140.45,0,0,0,102.05,668L262,868.49a140.46,140.46,0,0,0,109.8,52.88H628.24A140.46,140.46,0,0,0,738,868.49L898,668a140.45,140.45,0,0,0,27.12-118.82L868,299.11a140.46,140.46,0,0,0-76-95.29L560.94,92.54A140.49,140.49,0,0,0,439.06,92.54Z"/><path class="cls-2" d="M727.52,284.5H582.65V206.72H497.21V284.5H415.06V206.72H333.39V284.5h-86.1v87h81.36V793.28h86.5V539.34h76.11L665.62,793.28h87.09L581.83,541.9H727.52a25.19,25.19,0,0,0,25.19-25.19v-207A25.18,25.18,0,0,0,727.52,284.5ZM643.78,457.39H416.46V371.53H643.78a25,25,0,0,1,25.05,25.05v35.76A25.06,25.06,0,0,1,643.78,457.39Z"/></svg>