<svg id="图层_1" data-name="图层 1" xmlns="http://www.w3.org/2000/svg" viewBox="0 0 256 256"><defs><style>.cls-1{fill:#fff600;stroke:#fbee00;stroke-width:0.28px;}.cls-1,.cls-2{stroke-miterlimit:10;}.cls-2{fill:#0e6db0;stroke:#0065ae;stroke-width:1.42px;}</style></defs><title>abcmint-01</title><path class="cls-1" d="M110.72,12.43,45.18,44A39.8,39.8,0,0,0,23.63,71L7.44,141.94a39.82,39.82,0,0,0,7.69,33.7l45.35,56.87a39.85,39.85,0,0,0,31.15,15h72.74a39.85,39.85,0,0,0,31.15-15l45.35-56.87a39.82,39.82,0,0,0,7.69-33.7L232.37,71a39.8,39.8,0,0,0-21.55-27L145.28,12.43A39.82,39.82,0,0,0,110.72,12.43Z"/><path class="cls-2" d="M192.53,66.88H151.44V44.82H127.21V66.88h-23.3V44.82H80.75V66.88H56.33V91.56H79.4V211.18h24.54v-72h21.58l49.46,72h24.69l-48.46-71.3h41.32a7.13,7.13,0,0,0,7.14-7.14V74A7.14,7.14,0,0,0,192.53,66.88Zm-23.75,49H104.3V91.56h64.48a7.1,7.1,0,0,1,7.1,7.11v10.14A7.1,7.1,0,0,1,168.78,115.91Z"/></svg>